<svg width="24" height="24" viewBox="0 0 24 24" fill="none" xmlns="http://www.w3.org/2000/svg">
<path d="M15.9401 17.963C16.1701 16.084 14.9601 14.886 11.7651 13.866C10.2171 13.338 9.48814 12.646 9.50514 11.695C9.57014 10.639 10.5531 9.87 11.8571 9.845C12.8841 9.85608 13.8857 10.1653 14.7401 10.735C14.8561 10.807 14.9371 10.795 15.0031 10.695C15.0931 10.551 15.3181 10.202 15.3931 10.075C15.4441 9.995 15.4541 9.889 15.3251 9.795C15.1401 9.658 14.6211 9.38 14.3421 9.263C13.5476 8.92671 12.694 8.75198 11.8311 8.749C9.92114 8.757 8.41814 9.964 8.29114 11.575C8.20981 12.739 8.78647 13.6813 10.0211 14.402C10.2841 14.554 11.7011 15.118 12.2651 15.294C14.0391 15.846 14.9601 16.836 14.7431 17.991C14.5461 19.038 13.4441 19.715 11.9251 19.735C10.7221 19.689 9.63814 19.198 8.79814 18.545L8.65714 18.435C8.55314 18.355 8.43914 18.36 8.37014 18.465C8.32014 18.542 7.99414 19.012 7.91214 19.135C7.83514 19.243 7.87714 19.303 7.95714 19.369C8.30714 19.662 8.77414 19.982 9.09114 20.144C9.9692 20.5914 10.9351 20.8397 11.9201 20.871C12.6293 20.9047 13.3373 20.7839 13.9951 20.517C15.0901 20.052 15.7981 19.123 15.9401 17.963ZM11.9991 1.401C9.93114 1.401 8.24514 3.351 8.16614 5.791H15.8311C15.7501 3.35 14.0651 1.4 11.9991 1.4M19.8501 23.998L19.7701 23.999L3.98614 23.997C2.91214 23.957 2.12314 23.087 2.01514 22.006L2.00514 21.811L1.29814 6.285C1.29351 6.22263 1.30164 6.15997 1.32204 6.10084C1.34245 6.04172 1.3747 5.98738 1.41681 5.94114C1.45893 5.89491 1.51004 5.85775 1.56701 5.83193C1.62397 5.80612 1.68561 5.79219 1.74814 5.791H6.72314C6.84414 2.568 9.15914 0 11.9991 0C14.8391 0 17.1521 2.569 17.2741 5.79H22.2421C22.3044 5.79019 22.3659 5.80301 22.423 5.82767C22.4802 5.85233 22.5317 5.88833 22.5745 5.93348C22.6173 5.97863 22.6505 6.032 22.6721 6.09036C22.6937 6.14872 22.7033 6.21085 22.7001 6.273L21.9271 21.861L21.9201 21.992C21.8261 23.086 20.9411 23.969 19.8501 23.998Z" fill="white"/>
</svg>
